<svg id="Layer_1" data-name="Layer 1" xmlns="http://www.w3.org/2000/svg" viewBox="0 0 205.55 202.92"><path d="M203.21,89.41a1.82,1.82,0,0,0-2.2-1.58,12.92,12.92,0,0,1-6.76-24.9,1.84,1.84,0,0,0,1.1-1,1.82,1.82,0,0,0,0-1.48,100.5,100.5,0,0,0-11.58-19.88,1.83,1.83,0,0,0-1.27-.73,1.88,1.88,0,0,0-1.4.44,12.92,12.92,0,0,1-18.33-18.1,1.83,1.83,0,0,0-.32-2.66A101.28,101.28,0,0,0,142.6,8.2a1.8,1.8,0,0,0-1.44,0,1.83,1.83,0,0,0-1,1A12.93,12.93,0,0,1,115.3,2.69a1.83,1.83,0,0,0-1.61-2.1A100.63,100.63,0,0,0,90.94.71a1.79,1.79,0,0,0-1.23.7,1.87,1.87,0,0,0-.37,1.37A12.92,12.92,0,0,1,64.61,9.49a1.84,1.84,0,0,0-2.43-1A100.41,100.41,0,0,0,42.56,19.87a1.82,1.82,0,0,0-.72,1.21,1.84,1.84,0,0,0,.35,1.36A12.92,12.92,0,0,1,24.11,40.55a1.82,1.82,0,0,0-1.37-.35,1.85,1.85,0,0,0-1.21.72A101.68,101.68,0,0,0,10.18,60.5a1.83,1.83,0,0,0,1,2.42A13,13,0,0,1,18.5,78.07,13,13,0,0,1,4.39,87.59,1.85,1.85,0,0,0,3,88a1.87,1.87,0,0,0-.69,1.23,100.52,100.52,0,0,0-.7,12,1.11,1.11,0,0,0,0,.19c0,.06,0,.12,0,.18a1.09,1.09,0,0,0,.05.17l.06.17a1.09,1.09,0,0,0,.08.15.7.7,0,0,0,.09.17,1.47,1.47,0,0,1,.1.13l.12.14.13.1.14.12.15.08.16.09L3,103l.14,0a1.5,1.5,0,0,0,.37,0H36.09l.15,0L79,103H202.07a1.83,1.83,0,0,0,1.82-1.72s0-.07,0-.11h0A101,101,0,0,0,203.21,89.41Zm-77.88-12.9c0-1.21-1.86-1.64-1.86-1.64l-1.07-1.73s8.92,1.19,8.92,3.76c0,3.75-22.7,2.11-22.7,4.1s14.15,4,14.15,8-7.68,7.94-12.7,10.32l-38.1,0C83.26,95.94,106,88.72,106,86.26h0c0-3.28-10.77-1.87-10.77-5.15C95.27,76.9,125.33,78.94,125.33,76.51ZM113,57.89l11.6-10.48,0,.26,1.65,11.12-7.21,9-5.46-8.87ZM92.65,72.55,80.36,74.81a1.77,1.77,0,0,0-.84.4l-9,7.52L55.31,75.35,85,62.89a1.9,1.9,0,0,0,.83-.68l12-18.32,1.36,11.86Zm77.07,26.82-9.17-17.85a1.89,1.89,0,0,0-.88-.84l-11.22-5-21-32.86,0,0a1.77,1.77,0,0,0-.12-.17l0,0-.11-.12-.07-.06-.11-.09-.07,0-.13-.08-.07,0-.16-.06,0,0h0l-.22-.07h-.07l-.13,0h-.35l-.15,0h-.07l-.17.05h-.06l-.21.09h0l-.18.1,0,0-.13.1,0,0L111.05,54.74l-10.45-17,0,0-.06-.08a1.13,1.13,0,0,0-.1-.13l-.06-.07-.12-.12-.07-.06a.91.91,0,0,0-.16-.11l-.05,0L99.73,37l-.06,0-.19-.07h-.09l-.17,0h-.38l-.17,0-.08,0-.24.07,0,0-.18.08-.08.05-.13.09-.08.07-.12.11-.06.07a1.56,1.56,0,0,0-.16.2L83,59.73,50.15,73.55l-.25.13-.08,0-.15.12-.08.07-.12.13-.07.09-.1.14,0,.06-14.09,25H28.4a74.48,74.48,0,0,1,54.89-70h0a74.38,74.38,0,0,1,93.83,70Z"/><g id="Group_1898" data-name="Group 1898"><path id="Path_16426" data-name="Path 16426" d="M68.6,197h4.87v1.2H68.6v3.39h5.68v1.2h-7V192.55h7v1.2H68.6Z"/><path id="Path_16427" data-name="Path 16427" d="M77.11,199.82h1.28a1.77,1.77,0,0,0,.75,1.43,3.35,3.35,0,0,0,1.91.44c1.72,0,2.59-.58,2.59-1.76a1.48,1.48,0,0,0-.5-1.18,2.82,2.82,0,0,0-1.52-.53l-1.36-.17c-2-.24-2.92-1.16-2.92-2.73a2.53,2.53,0,0,1,1-2.14,4.33,4.33,0,0,1,2.7-.77,4.23,4.23,0,0,1,2.63.74,3,3,0,0,1,1.1,2.16H83.48a1.72,1.72,0,0,0-.67-1.32,3,3,0,0,0-1.77-.44,3.15,3.15,0,0,0-1.8.43,1.43,1.43,0,0,0-.62,1.24,1.37,1.37,0,0,0,.48,1.11,2.81,2.81,0,0,0,1.47.54L82,197c2,.27,3,1.2,3,2.81a2.61,2.61,0,0,1-1,2.22,4.77,4.77,0,0,1-2.91.79,4.46,4.46,0,0,1-2.79-.77A3,3,0,0,1,77.11,199.82Z"/><path id="Path_16428" data-name="Path 16428" d="M91.94,193.75v9H90.63v-9H87.39v-1.2h7.8v1.2Z"/><path id="Path_16429" data-name="Path 16429" d="M98.13,201.18v1.58H96.64v-1.58Z"/><path id="Path_16430" data-name="Path 16430" d="M110,197.4a4.75,4.75,0,0,0,.79-1.09,2.29,2.29,0,0,0,.23-1v-.17a1.49,1.49,0,0,0-.47-1.16,1.91,1.91,0,0,0-1.3-.41A1.79,1.79,0,0,0,108,194a1.6,1.6,0,0,0-.44,1.21v.17h-1.28v-.27a2.51,2.51,0,0,1,.81-2,3.19,3.19,0,0,1,2.2-.72,3.47,3.47,0,0,1,1.62.34,2.59,2.59,0,0,1,1.07.95,2.72,2.72,0,0,1,.37,1.42v.22a3.17,3.17,0,0,1-.31,1.39,5.9,5.9,0,0,1-1,1.41l-3,3.44h4.39v1.19h-6.13v-1.08Z"/><path id="Path_16431" data-name="Path 16431" d="M115.81,199.18v-3.12a4.09,4.09,0,0,1,.79-2.73,3.38,3.38,0,0,1,4.66,0,4.09,4.09,0,0,1,.79,2.73v3.12a4.17,4.17,0,0,1-.79,2.79,3.36,3.36,0,0,1-4.66,0A4.28,4.28,0,0,1,115.81,199.18Zm4.92-.1v-2.84a3.65,3.65,0,0,0-.43-2,1.79,1.79,0,0,0-2.73,0,3.65,3.65,0,0,0-.43,2v2.84a3.58,3.58,0,0,0,.43,2,1.8,1.8,0,0,0,2.74,0,3.66,3.66,0,0,0,.42-2Z"/><path id="Path_16432" data-name="Path 16432" d="M125.31,195.38v-1.44l2.14-1.39h1.33v10.21h-1.33V194Z"/><path id="Path_16433" data-name="Path 16433" d="M138.28,193.75l-3.82,9h-1.33l3.82-9h-4.74v-1.2h6.07Z"/></g><g id="Group_1899" data-name="Group 1899"><path id="Path_16434" data-name="Path 16434" d="M10.42,141.59H31.26v9.23H10.42v14.32H34.84v9.23H0V118.53H34.84v9.23H10.42Z"/><path id="Path_16435" data-name="Path 16435" d="M55.52,161.09l-6.84,13.27H38.34l12.41-21.68-11.69-20.4H49.4l6.84,12,6.13-12H72.71L60.85,152.35l12.57,22H63.16Z"/><path id="Path_16436" data-name="Path 16436" d="M78.11,140q0-22.26,20.13-22.25,9,0,14.32,4.81t5.33,13.31v.57H107.47v-.57a8.71,8.71,0,0,0-2.43-6.31A9.13,9.13,0,0,0,98.16,127q-5,0-7.28,3.16t-2.26,10.35V152.6q0,6.89,2.42,9.92c1.62,2,4.12,3,7.52,3q4.77,0,7-2.51c1.46-1.67,2.19-4.21,2.19-7.6v-2.67H98V144h19.88v9.55q0,21.45-19.81,21.45-20,0-20-22.26Z"/><path id="Path_16437" data-name="Path 16437" d="M136.18,141.59H157v9.23H136.18v14.32H160.6v9.23H125.76V118.53H160.6v9.23H136.18Z"/><path id="Path_16438" data-name="Path 16438" d="M165.77,140q0-22.26,20-22.25,9.15,0,14.48,5.22t5.33,17v12.79q0,11.8-5.45,17T185.42,175q-19.65,0-19.65-22.25Zm29.36,12.62v-12q0-7.12-2.31-10.32t-7.08-3.2c-3.34,0-5.76,1-7.24,3.11s-2.23,5.55-2.23,10.4V152.6q0,6.89,2.23,9.92c1.48,2,3.9,3,7.24,3q4.77,0,7.08-3.11t2.31-9.84Z"/></g><path id="Path_16439" data-name="Path 16439" d="M102.77,82.89"/></svg>